<svg width="318" height="320" viewBox="0 0 318 320" fill="none" xmlns="http://www.w3.org/2000/svg">
<path fill-rule="evenodd" clip-rule="evenodd" d="M88.9524 41.251C42.2644 70.777 14.821 127.991 24.4479 184.914C37.0649 259.518 107.771 309.768 182.375 297.151C256.978 284.534 307.229 213.828 294.612 139.224C281.995 64.6202 212.096 9.97329 137.492 22.5903C135.306 22.96 133.14 23.3834 130.996 23.8588L141.916 62.3679L141.961 63.4207C142.247 63.3697 142.534 63.3199 142.821 63.2713C195.098 54.4302 244.644 89.642 253.485 141.919C262.326 194.196 227.114 243.742 174.837 252.583C122.56 261.424 73.0145 226.212 64.1734 173.935C57.5023 134.489 75.9129 96.5984 107.811 76.5763L88.9524 41.251Z" fill="#3FAD5C"/>
</svg>
