<svg width="140" height="60" viewBox="0 0 140 60" fill="none" xmlns="http://www.w3.org/2000/svg">
<path fill-rule="evenodd" clip-rule="evenodd" d="M10.668 35.9423L16.0619 37.9893L21.0221 24.6193L15.6282 22.5723L10.668 35.9423Z" fill="#30284E"/>
<path fill-rule="evenodd" clip-rule="evenodd" d="M40.8765 36.5988L32.2681 12.5947L28.4773 13.9851L29.6643 17.2947H21.0234V37.9894H29.6645V17.2953L37.086 37.9894L40.8765 36.5988Z" fill="#30284E"/>
<path fill-rule="evenodd" clip-rule="evenodd" d="M96.06 33.9554C97.1402 33.9554 97.481 33.2108 97.481 29.8637C97.481 26.459 97.1402 25.7441 96.06 25.7441C95.0374 25.7441 94.6964 26.459 94.6684 29.8637C94.6402 33.2108 95.0374 33.9554 96.06 33.9554ZM100.549 42.1663C100.549 41.5084 99.8675 41.1651 98.0206 41.0791L92.5658 40.8219C92.4237 41.1651 92.3673 41.5084 92.3673 41.9371C92.3673 43.3395 94.6684 43.9684 96.2873 43.9684C99.5827 43.9684 100.549 42.8239 100.549 42.1663ZM103.901 40.535C103.901 43.4822 100.577 45.1417 96.2873 45.1417C92.6795 45.1703 89.5547 44.226 89.5547 42.395C89.5547 41.3939 90.1229 40.6783 91.1454 40.1918C90.5492 39.6195 90.1509 38.7039 90.1509 37.6173C90.1509 35.8429 91.0037 34.5842 92.0827 34.012C90.5492 33.0965 89.6402 31.6088 89.6402 29.8637C89.6402 27.0312 92.225 24.7141 96.06 24.7141C97.8218 24.7141 99.3275 25.1146 100.436 25.8867C100.436 25.8867 105.913 25.9497 109.491 25.4159C110.605 25.2496 111.561 24.9467 111.999 24.5996L109.952 27.5581L101.486 26.8311C102.14 27.6611 102.509 28.6911 102.509 29.8637C102.509 32.6676 99.9524 34.9851 96.06 34.9851C94.981 34.9851 94.0145 34.8132 93.1627 34.5274C92.7646 34.7275 92.4524 35.0419 92.4524 35.4713C92.4524 35.872 92.7084 36.2152 93.56 36.2441L96.316 36.3009C101.771 36.387 103.901 37.9607 103.901 40.535Z" fill="#30284E"/>
<path fill-rule="evenodd" clip-rule="evenodd" d="M115.351 36.759V29.4926C115.351 28.3764 115.067 27.4327 113.902 27.4327C113.05 27.4327 112.567 27.7181 112.283 28.176V36.759C112.283 37.9895 112.51 38.848 112.965 39.3627H105.578C106.033 38.848 106.26 37.9895 106.26 36.759V27.7181C106.26 26.4882 106.386 26.2696 105.96 25.7552C107.323 25.669 110.817 25.5008 111.999 24.6V26.8605C112.709 25.716 113.959 24.3994 116.431 24.3994C120.237 24.3994 121.402 26.8887 121.402 30.3502V36.759C121.402 37.9895 121.629 38.848 122.084 39.3627H114.669C115.124 38.848 115.351 37.9895 115.351 36.759Z" fill="#30284E"/>
<path fill-rule="evenodd" clip-rule="evenodd" d="M72.5784 19.1115V21.372H57.8906C58.459 20.857 58.743 20.0849 58.743 18.6256V3.29038C58.743 1.83108 58.459 1.05893 57.8906 0.543945H72.266V2.80423H72.2373C71.726 2.26062 71.0727 2.00324 69.5955 2.00324H64.8226V9.2414H68.1464C69.3681 9.2414 70.2203 9.01243 70.7319 8.55469V11.3586C70.2203 10.9006 69.3681 10.6719 68.1464 10.6719H64.8226V19.9125H69.9079C71.3567 19.9125 72.0386 19.6553 72.5498 19.1115H72.5784Z" fill="#30284E"/>
<path fill-rule="evenodd" clip-rule="evenodd" d="M84.1987 17.1377V10.8719C83.6873 9.8135 83.0623 9.47025 82.2667 9.47025C80.9315 9.47025 80.2496 10.443 80.2212 14.0194C80.193 17.5094 80.9315 18.5682 82.2667 18.5682C83.0623 18.5682 83.6873 18.2249 84.1987 17.1377ZM84.4258 21.3721L84.1987 18.9114C83.1759 20.5993 81.6416 21.5724 79.3408 21.5724C76.2726 21.5724 73.8008 19.1977 73.8008 14.0194C73.8008 8.78353 76.6987 6.4376 79.5679 6.4376C81.6134 6.4376 83.1475 7.41032 84.1987 9.09859V3.14777C84.1987 1.91703 83.9713 1.08763 83.5168 0.572226C84.8804 0.486572 88.2044 0.257809 90.2214 0V18.7681C90.2214 19.9987 90.4486 20.8569 90.9033 21.3721H84.4258Z" fill="#30284E"/>
<path fill-rule="evenodd" clip-rule="evenodd" d="M102.412 21.3723L102.269 18.9118C101.616 20.0561 100.423 21.5728 97.61 21.5728C94.3999 21.5728 93.0647 19.7701 93.0647 16.3085V9.26985C93.0647 8.03996 92.8373 7.72554 92.3828 7.20992C94.4567 7.12448 96.8716 6.86667 99.0874 6.6377V16.4796C99.0874 17.6241 99.3716 18.5684 100.537 18.5684C101.162 18.5684 101.616 18.2251 101.985 17.5384V9.26985C101.985 8.03996 101.758 7.72554 101.303 7.20992C103.378 7.12448 105.792 6.86667 108.008 6.6377V18.7685C108.008 19.9988 108.235 20.8573 108.69 21.3723H102.412Z" fill="#30284E"/>
<path fill-rule="evenodd" clip-rule="evenodd" d="M69.8676 25.487L69.2139 27.2037H69.1857C68.8448 26.8887 67.3958 25.916 65.5495 25.916C63.8728 25.916 63.1061 26.3449 63.1061 27.3464C63.1061 29.2634 70.5777 30.0358 70.5777 34.5562C70.5777 37.9893 67.595 39.5633 62.8221 39.5633C59.4979 39.5633 58.0493 38.7905 57.2539 38.39L57.879 36.7022H57.907C58.163 36.9311 59.7821 38.0177 62.0265 38.0177C63.8162 38.0177 64.6684 37.5032 64.6684 36.4155C64.6684 33.8697 57.3676 34.2699 57.2819 29.3491C57.2539 26.6027 59.4131 24.3994 64.8956 24.3994C67.1971 24.3994 68.7025 24.9148 69.8676 25.487Z" fill="#30284E"/>
<path fill-rule="evenodd" clip-rule="evenodd" d="M78.1079 31.9815C78.0793 37.2746 78.5907 38.3902 79.9262 38.3902C81.2898 38.3902 81.7725 37.2746 81.7443 31.9815C81.7157 26.6883 81.2898 25.6017 79.9262 25.6017C78.5907 25.6017 78.1361 26.6883 78.1079 31.9815ZM88.1361 31.9815C88.1361 36.0725 85.0961 39.5635 79.9262 39.5635C74.4717 39.5635 71.6875 36.3303 71.6875 31.9815C71.6875 27.8904 74.7551 24.3994 79.9262 24.3994C85.3233 24.3994 88.1361 27.6326 88.1361 31.9815Z" fill="#30284E"/>
<path fill-rule="evenodd" clip-rule="evenodd" d="M129.87 31.9815C129.842 37.2746 130.353 38.3902 131.689 38.3902C133.052 38.3902 133.535 37.2746 133.507 31.9815C133.478 26.6883 133.052 25.6017 131.689 25.6017C130.353 25.6017 129.898 26.6883 129.87 31.9815ZM139.898 31.9815C139.898 36.0725 136.858 39.5635 131.689 39.5635C126.234 39.5635 123.449 36.3303 123.449 31.9815C123.449 27.8904 126.517 24.3994 131.689 24.3994C137.086 24.3994 139.898 27.6326 139.898 31.9815Z" fill="#30284E"/>
<path fill-rule="evenodd" clip-rule="evenodd" d="M2.83913 3.233V26.3165C2.83913 37.8093 9.11302 48.2714 19.2128 53.6205L25.7768 57.0975L32.341 53.6205C42.441 48.2714 48.7149 37.8093 48.7149 26.3165V3.233H2.83913ZM25.7772 59.93C25.5233 59.93 25.2694 59.8688 25.0381 59.746L17.9694 56.0016C6.98902 50.1861 0.167969 38.8111 0.167969 26.3165V0.542969H51.3861V26.3165C51.3861 38.8111 44.5648 50.1861 33.5846 56.0016L26.5145 59.7466C26.2838 59.8688 26.0307 59.93 25.7772 59.93Z" fill="#30284E"/>
</svg>
